# xmcd CD database file
#
# Track frame offsets:
#	150
#	27037
#	56250
#	89247
#	115480
#	135775
#	167110
#	199525
#	233490
#	256087
#
# Disc length: 3711 seconds
#
# Revision: 0
# Processed by: cddbd v1.5.1PL0 Copyright (c) Steve Scherf et al.
# Submitted via: CDex 1.51
#
DISCID=760e7d0a
DTITLE=Joe Henderson - Lush Life
DYEAR=1992
DGENRE=Jazz
TTITLE0=Isfahan
TTITLE1=Johnny Come Lately
TTITLE2=Blood Count
TTITLE3=Rain Check
TTITLE4=Lotus Blossom
TTITLE5=A Flower Is A Lovesome Thing
TTITLE6=Take The "A" Train
TTITLE7=Drawing Room Blues
TTITLE8=U.M.M.G (Upper Manhattan Medical Group)
TTITLE9=Lush Life
EXTD=YEAR: 1992
EXTT0=
EXTT1=
EXTT2=
EXTT3=
EXTT4=
EXTT5=
EXTT6=
EXTT7=
EXTT8=
EXTT9=
PLAYORDER=
